<svg height="512" viewBox="0 0 64 64" width="512" xmlns="http://www.w3.org/2000/svg"><g id="mobilephone-email-smartphone-technology-mail"><path d="m27 20h18v-11a1 1 0 0 0 -1-1h-5.17a1.015 1.015 0 0 0 -.712.3l-.831.831a3.015 3.015 0 0 1 -2.117.869h-6.34a3.008 3.008 0 0 1 -2.108-.864l-.849-.849a1.011 1.011 0 0 0 -.703-.287h-5.17a1 1 0 0 0 -1 1v46a1 1 0 0 0 1 1h24a1 1 0 0 0 1-1v-11h-18a1 1 0 0 1 -1-1v-22a1 1 0 0 1 1-1zm11-10h4a1 1 0 0 1 1 1v4a1 1 0 0 1 -2 0v-3h-3a1 1 0 0 1 0-2zm-11 43a1 1 0 0 1 -1 1h-4a1 1 0 0 1 -1-1v-4a1 1 0 0 1 2 0v3h3a1 1 0 0 1 1 1z"/><path d="m28 23.216v17.568l9.956-8.782z"/><path d="m49 44h-2v11a3 3 0 0 1 -3 3h-24a3 3 0 0 1 -3-3v-46a3 3 0 0 1 3-3h5.17a3.008 3.008 0 0 1 2.108.864l.849.849a1.011 1.011 0 0 0 .7.287h6.34a1.015 1.015 0 0 0 .712-.3l.831-.831a3.015 3.015 0 0 1 2.12-.869h5.17a3 3 0 0 1 3 3v11h2v-13a3 3 0 0 0 -3-3h-28a3 3 0 0 0 -3 3v50a3 3 0 0 0 3 3h28a3 3 0 0 0 3-3zm-18-39h2a1 1 0 0 1 0 2h-2a1 1 0 0 1 0-2z"/><path d="m60 23.217-9.956 8.785 9.956 8.783z"/><path d="m48.532 33.335-1.223 1.08a5.011 5.011 0 0 1 -6.618 0l-1.223-1.08-9.823 8.665h28.71z"/><path d="m45.984 32.915 12.371-10.915h-28.71l12.371 10.915a3 3 0 0 0 3.968 0z"/></g></svg>